_________________________________________________________________________________

Description:
-----------

General
Format                           : MPEG-PS
File size                        : 965 MiB
Duration                         : 2h 14mn
Overall bit rate                 : 1 005 Kbps

Video
ID                               : 224 (0xE0)
Format                           : MPEG Video
Format version                   : Version 2
Format profile                   : Main@Main
Format settings, BVOP            : Yes
Format settings, Matrix          : Default
Format settings, GOP             : M=3, N=12
Duration                         : 2h 14mn
Bit rate mode                    : Variable
Bit rate                         : 857 Kbps
Width                            : 352 pixels
Height                           : 288 pixels
Display aspect ratio             : 1.222
Frame rate                       : 29.970 fps
Standard                         : PAL
Color space                      : YUV
Chroma subsampling               : 4:2:0
Bit depth                        : 8 bits
Scan type                        : Progressive
Bits/(Pixel*Frame)               : 0.282
Stream size                      : 823 MiB (85%)

Audio
ID                               : 192 (0xC0)
Format                           : MPEG Audio
Format version                   : Version 1
Format profile                   : Layer 2
Duration                         : 2h 14mn
Bit rate mode                    : Constant
Bit rate                         : 128 Kbps
Channel(s)                       : 2 channels
Sampling rate                    : 44.1 KHz
Stream size                      : 123 MiB (13%)

_________________________________________________________________________________

Screenshots:
-----------
 
http://img819.imageshack.us/img819/48/vlcsnap232393.png
 
http://img209.imageshack.us/img209/5185/vlcsnap232668.png
 
http://img180.imageshack.us/img180/2739/vlcsnap232877.png
 
http://img153.imageshack.us/img153/3742/vlcsnap232947.png

_________________________________________________________________________________


UL by =ThE.CounT=